<svg width="512" height="230" viewBox="0 0 512 230" fill="none" xmlns="http://www.w3.org/2000/svg">
<g clip-path="url(#clip0_243_2)">
<path d="M4.54654 208.62H25.9802L73.7189 17.4929H52.2852L56.8318 0H142.567L138.02 17.4929H116.586L69.1724 207.324H130.875L142.242 162.296H173.743L157.83 226.113H0L4.54654 208.62Z" fill="white"/>
<path d="M191.388 197.606H248.544V87.4648H191.388V58.9577H283.942V197.606H337.526V226.113H191.388V197.606Z" fill="white"/>
<path d="M376.253 230C364.129 230 355.361 225.789 349.948 217.366C344.752 208.944 342.154 196.958 342.154 181.408C342.154 168.019 344.103 153.873 348 138.972C351.897 123.854 357.418 110.033 364.562 97.507C371.923 84.7652 380.8 74.2911 391.192 66.0845C401.801 57.8779 413.708 53.7746 426.915 53.7746C436.441 53.7746 444.235 56.1502 450.297 60.9014C456.359 65.6526 460.581 73.2113 462.962 83.5775H466.21L482.772 57.662H500.309L462.638 205.704L468.483 208.296L502.257 171.366L512 177.845L490.891 204.732C483.313 214.235 476.818 220.822 471.406 224.493C466.21 228.164 460.797 230 455.168 230C446.941 230 441.096 227.84 437.632 223.521C434.384 219.202 432.76 214.235 432.76 208.62C432.76 205.812 432.977 202.789 433.41 199.549C434.059 196.31 434.709 193.502 435.358 191.127L440.23 171.69L436.982 170.718C433.085 179.141 429.08 187.023 424.966 194.366C420.853 201.493 416.306 207.756 411.327 213.155C406.564 218.338 401.259 222.441 395.414 225.465C389.568 228.488 383.181 230 376.253 230ZM389.893 205.38C395.955 205.38 402.234 202.141 408.729 195.662C415.224 188.967 421.286 180.977 426.915 171.69C432.76 162.188 437.848 152.254 442.178 141.887C446.508 131.521 449.647 122.559 451.596 115L453.22 108.521C455.818 98.1549 455.818 89.7324 453.22 83.2535C450.622 76.7746 444.993 73.5352 436.333 73.5352C426.373 73.5352 416.956 78.3944 408.079 88.1127C399.419 97.615 392.383 112.192 386.97 131.845C385.888 135.516 384.805 139.728 383.723 144.479C382.857 149.014 381.991 153.657 381.125 158.408C380.475 163.16 379.826 167.695 379.176 172.014C378.743 176.333 378.527 180.113 378.527 183.352C378.527 190.263 379.284 195.662 380.8 199.549C382.315 203.437 385.346 205.38 389.893 205.38Z" fill="white"/>
<path d="M249.924 0.0263626H283.753V33.7705H249.924V0.0263626Z" fill="white"/>
</g>
<defs>
<clipPath id="clip0_243_2">
<rect width="512" height="230" fill="white"/>
</clipPath>
</defs>
</svg>
