<svg width="800" height="232" viewBox="0 0 800 232" fill="none" xmlns="http://www.w3.org/2000/svg">
<g clip-path="url(#clip0_231_189)">
<path d="M5.58421 210.434H27.1955L75.3298 17.6451H53.7185L58.3027 0H144.748L140.164 17.6451H118.552L70.7456 209.127H132.96L144.42 163.707H176.182L160.138 228.079H1L5.58421 210.434Z" fill="#ffffff"/>
<path d="M193.974 199.324H251.604V88.2253H193.974V59.4704H287.295V199.324H341.323V228.079H193.974V199.324Z" fill="#ffffff"/>
<path d="M380.371 232C368.146 232 359.305 227.752 353.848 219.256C348.609 210.761 345.989 198.67 345.989 182.986C345.989 169.48 347.954 155.211 351.883 140.18C355.813 124.931 361.379 110.99 368.583 98.3549C376.005 85.5023 384.955 74.9371 395.433 66.6591C406.13 58.3812 418.136 54.2423 431.452 54.2423C441.057 54.2423 448.916 56.6385 455.028 61.431C461.141 66.2235 465.397 73.8479 467.799 84.3042H471.073L487.773 58.1634H505.455L467.471 207.493L473.365 210.107L507.419 172.856L517.243 179.392L495.959 206.513C488.318 216.098 481.77 222.742 476.312 226.445C471.073 230.148 465.616 232 459.94 232C451.645 232 445.751 229.822 442.258 225.465C438.983 221.108 437.346 216.098 437.346 210.434C437.346 207.602 437.565 204.552 438.001 201.284C438.656 198.017 439.311 195.185 439.966 192.789L444.877 173.183L441.603 172.203C437.674 180.699 433.635 188.65 429.488 196.056C425.34 203.245 420.756 209.562 415.735 215.008C410.932 220.237 405.584 224.376 399.69 227.425C393.796 230.475 387.357 232 380.371 232ZM394.124 207.166C400.236 207.166 406.567 203.899 413.115 197.363C419.664 190.61 425.777 182.55 431.452 173.183C437.346 163.598 442.476 153.577 446.842 143.121C451.208 132.665 454.373 123.624 456.338 116L457.975 109.465C460.595 99.0084 460.595 90.5127 457.975 83.9775C455.356 77.4423 449.68 74.1746 440.948 74.1746C430.907 74.1746 421.411 79.0761 412.461 88.8789C403.729 98.4638 396.634 113.168 391.177 132.992C390.085 136.695 388.994 140.943 387.902 145.735C387.029 150.31 386.156 154.993 385.283 159.786C384.628 164.578 383.973 169.153 383.318 173.51C382.881 177.867 382.663 181.679 382.663 184.946C382.663 191.917 383.427 197.363 384.955 201.284C386.483 205.206 389.539 207.166 394.124 207.166Z" fill="#ffffff"/>
<path d="M538.554 228.079V58.1634H572.28V91.8197H576.21C578.611 80.9277 583.086 72.6498 589.635 66.9859C596.402 61.1042 604.916 58.1634 615.176 58.1634H623.689V92.4732H609.282C597.275 92.4732 588.107 94.7606 581.776 99.3352C575.446 103.91 572.28 111.208 572.28 121.228V228.079H538.554Z" fill="#ffffff"/>
<path d="M779.061 228.079C768.801 228.079 761.052 225.465 755.813 220.237C750.792 215.008 747.736 208.146 746.644 199.651H745.007C741.733 209.889 735.73 217.84 726.998 223.504C718.484 229.168 707.569 232 694.253 232C677.008 232 663.255 227.534 652.995 218.603C642.735 209.454 637.606 196.928 637.606 181.025C637.606 164.687 643.609 152.27 655.615 143.775C667.839 135.061 686.504 130.704 711.608 130.704H744.025V117.634C744.025 94.7606 731.909 83.3239 707.679 83.3239C696.764 83.3239 687.923 85.5023 681.156 89.8592C674.388 93.9981 668.713 99.553 664.128 106.524L642.845 89.2056C647.647 80.0563 655.724 72.2141 667.075 65.6789C678.427 58.9258 693.053 55.5493 710.953 55.5493C732.346 55.5493 749.155 60.6685 761.379 70.907C773.604 81.1455 779.716 95.9587 779.716 115.346V199.977H801V228.079H779.061ZM704.404 205.859C715.974 205.859 725.47 203.245 732.892 198.017C740.314 192.789 744.025 186.036 744.025 177.758V153.251H712.263C686.504 153.251 673.624 160.984 673.624 176.451V182.986C673.624 190.61 676.353 196.383 681.81 200.304C687.268 204.007 694.799 205.859 704.404 205.859Z" fill="#ffffff"/>
<path d="M252.995 0.0265918H287.104V34.0641H252.995V0.0265918Z" fill="#ffffff"/>
</g>
<defs>
<clipPath id="clip0_231_189">
<rect width="800" height="232" fill="white"/>
</clipPath>
</defs>
</svg>
