<svg width="3000" height="3000" viewBox="0 0 3000 3000" fill="none" xmlns="http://www.w3.org/2000/svg">
<g clip-path="url(#clip0_416_22)">
<rect width="3000" height="3000" rx="500" fill="#AE533C"/>
<path d="M272.2 1956.7H376.857L609.956 1024.34H505.299L527.499 939H946.126L923.926 1024.34H819.269L587.756 1950.38H889.04L944.54 1730.72H1098.35L1020.65 2042.04H250L272.2 1956.7Z" fill="#E4C6BF"/>
<path d="M1184.51 1902.97H1463.59V1365.68H1184.51V1226.61H1636.44V1902.97H1898.08V2042.04H1184.51V1902.97Z" fill="#E4C6BF"/>
<path d="M2087.17 2061C2027.97 2061 1985.16 2040.46 1958.73 1999.37C1933.36 1958.28 1920.67 1899.81 1920.67 1823.96C1920.67 1758.64 1930.19 1689.63 1949.22 1616.94C1968.25 1543.19 1995.2 1475.77 2030.09 1414.66C2066.03 1352.51 2109.37 1301.41 2160.12 1261.38C2211.92 1221.34 2270.06 1201.33 2334.54 1201.33C2381.06 1201.33 2419.12 1212.92 2448.72 1236.09C2478.32 1259.27 2498.93 1296.14 2510.56 1346.71H2526.42L2607.29 1220.29H2692.91L2508.97 1942.48L2537.52 1955.12L2702.43 1774.97L2750 1806.57L2646.93 1937.74C2609.93 1984.09 2578.22 2016.23 2551.79 2034.14C2526.42 2052.04 2499.99 2061 2472.5 2061C2432.33 2061 2403.79 2050.46 2386.87 2029.39C2371.02 2008.32 2363.09 1984.09 2363.09 1956.7C2363.09 1943.01 2364.14 1928.26 2366.26 1912.45C2369.43 1896.65 2372.6 1882.95 2375.77 1871.37L2399.56 1776.55L2383.7 1771.81C2364.67 1812.9 2345.12 1851.35 2325.03 1887.17C2304.94 1921.94 2282.74 1952.49 2258.43 1978.83C2235.17 2004.11 2209.27 2024.13 2180.73 2038.88C2152.19 2053.63 2121 2061 2087.17 2061ZM2153.77 1940.9C2183.37 1940.9 2214.03 1925.1 2245.74 1893.49C2277.46 1860.83 2307.06 1821.85 2334.54 1776.55C2363.09 1730.19 2387.93 1681.73 2409.07 1631.16C2430.22 1580.59 2445.54 1536.87 2455.06 1500L2462.99 1468.39C2475.67 1417.83 2475.67 1376.74 2462.99 1345.13C2450.3 1313.53 2422.82 1297.72 2380.53 1297.72C2331.9 1297.72 2285.92 1321.43 2242.57 1368.84C2200.29 1415.19 2165.93 1486.3 2139.5 1582.17C2134.22 1600.08 2128.93 1620.63 2123.65 1643.81C2119.42 1665.93 2115.19 1688.58 2110.96 1711.76C2107.79 1734.94 2104.62 1757.06 2101.45 1778.13C2099.33 1799.2 2098.27 1817.64 2098.27 1833.44C2098.27 1867.15 2101.97 1893.49 2109.37 1912.45C2116.77 1931.42 2131.57 1940.9 2153.77 1940.9Z" fill="#E4C6BF"/>
<path d="M1470.33 939.129H1635.51V1103.74H1470.33V939.129Z" fill="#E4C6BF"/>
</g>
<defs>
<clipPath id="clip0_416_22">
<rect width="3000" height="3000" fill="white"/>
</clipPath>
</defs>
</svg>
