<svg width="512" height="512" viewBox="0 0 512 512" fill="none" xmlns="http://www.w3.org/2000/svg">
<path d="M4.54654 349.62H25.9802L73.7189 158.493H52.2852L56.8318 141H142.567L138.02 158.493H116.586L69.1724 348.324H130.875L142.242 303.296H173.743L157.83 367.113H0L4.54654 349.62Z" fill="white"/>
<path d="M191.388 338.606H248.544V228.465H191.388V199.958H283.942V338.606H337.526V367.113H191.388V338.606Z" fill="white"/>
<path d="M376.253 371C364.129 371 355.361 366.789 349.948 358.366C344.752 349.944 342.154 337.958 342.154 322.408C342.154 309.019 344.103 294.873 348 279.972C351.897 264.854 357.418 251.033 364.562 238.507C371.923 225.765 380.8 215.291 391.192 207.085C401.801 198.878 413.708 194.775 426.915 194.775C436.441 194.775 444.235 197.15 450.297 201.901C456.359 206.653 460.581 214.211 462.962 224.577H466.21L482.772 198.662H500.309L462.638 346.704L468.483 349.296L502.257 312.366L512 318.845L490.891 345.732C483.313 355.235 476.818 361.822 471.406 365.493C466.21 369.164 460.797 371 455.168 371C446.941 371 441.096 368.84 437.632 364.521C434.384 360.202 432.76 355.235 432.76 349.62C432.76 346.812 432.977 343.789 433.41 340.549C434.059 337.31 434.709 334.502 435.358 332.127L440.23 312.69L436.982 311.718C433.085 320.141 429.08 328.023 424.966 335.366C420.853 342.493 416.306 348.756 411.327 354.155C406.564 359.338 401.259 363.441 395.414 366.465C389.568 369.488 383.181 371 376.253 371ZM389.893 346.38C395.955 346.38 402.234 343.141 408.729 336.662C415.224 329.967 421.286 321.977 426.915 312.69C432.76 303.188 437.848 293.254 442.178 282.887C446.508 272.521 449.647 263.559 451.596 256L453.22 249.521C455.818 239.155 455.818 230.732 453.22 224.254C450.622 217.775 444.993 214.535 436.333 214.535C426.373 214.535 416.956 219.394 408.079 229.113C399.419 238.615 392.383 253.192 386.97 272.845C385.888 276.516 384.805 280.728 383.723 285.479C382.857 290.014 381.991 294.657 381.125 299.408C380.475 304.16 379.826 308.695 379.176 313.014C378.743 317.333 378.527 321.113 378.527 324.352C378.527 331.263 379.284 336.662 380.8 340.549C382.315 344.437 385.346 346.38 389.893 346.38Z" fill="white"/>
<path d="M249.924 141.026H283.753V174.77H249.924V141.026Z" fill="white"/>
</svg>
